# xmcd
#
# Track frame offsets: 
#        150
#        16622
#        32312
#        45735
#        67497
#        83652
#        100190
#        115917
#        128937
#        146827
#        165777
#        183072
#
# Disc length: 2645 seconds
#
# Revision: 4
# Processed by: cddbd v1.5.2PL0 Copyright (c) Steve Scherf et al.
# Submitted via: ExactAudioCopy v0.99pb5
#
DISCID=910a530c
DTITLE=Pat Green - Lucky Ones
DYEAR=2004
DGENRE=Country
TTITLE0=Baby Doll
TTITLE1=Lucky Ones
TTITLE2=Somewhere Between Texas And Mexico
TTITLE3=Don't Break My Heart, Again
TTITLE4=My Little Heaven
TTITLE5=College
TTITLE6=One Thing
TTITLE7=Over And Over
TTITLE8=Long Way To Go (Headed Home)
TTITLE9=Temporary Angel
TTITLE10=It's Time
TTITLE11=Sweet Revenge
EXTD=
EXTT0=
EXTT1=
EXTT2=
EXTT3=
EXTT4=
EXTT5=
EXTT6=
EXTT7=
EXTT8=
EXTT9=
EXTT10=
EXTT11=
PLAYORDER=
